<svg width="24" height="24" viewBox="0 0 24 24" fill="none" xmlns="http://www.w3.org/2000/svg">
<path d="M13.7578 12C13.7578 12.9708 12.9708 13.7578 12 13.7578C11.0292 13.7578 10.2422 12.9708 10.2422 12C10.2422 11.0292 11.0292 10.2422 12 10.2422C12.9708 10.2422 13.7578 11.0292 13.7578 12Z" fill="#374151"/>
<path d="M14.9688 6.6875H9.03125C7.73883 6.6875 6.6875 7.73883 6.6875 9.03125V14.9688C6.6875 16.2612 7.73883 17.3125 9.03125 17.3125H14.9688C16.2612 17.3125 17.3125 16.2612 17.3125 14.9688V9.03125C17.3125 7.73883 16.2612 6.6875 14.9688 6.6875ZM12 14.9297C10.3846 14.9297 9.07031 13.6154 9.07031 12C9.07031 10.3846 10.3846 9.07031 12 9.07031C13.6154 9.07031 14.9297 10.3846 14.9297 12C14.9297 13.6154 13.6154 14.9297 12 14.9297ZM15.3594 9.22656C15.0357 9.22656 14.7734 8.96426 14.7734 8.64062C14.7734 8.31699 15.0357 8.05469 15.3594 8.05469C15.683 8.05469 15.9453 8.31699 15.9453 8.64062C15.9453 8.96426 15.683 9.22656 15.3594 9.22656Z" fill="#374151"/>
<path d="M16.7266 2H7.27344C4.36572 2 2 4.36572 2 7.27344V16.7266C2 19.6343 4.36572 22 7.27344 22H16.7266C19.6343 22 22 19.6343 22 16.7266V7.27344C22 4.36572 19.6343 2 16.7266 2ZM18.4844 14.9688C18.4844 16.9072 16.9072 18.4844 14.9688 18.4844H9.03125C7.09277 18.4844 5.51562 16.9072 5.51562 14.9688V9.03125C5.51562 7.09277 7.09277 5.51562 9.03125 5.51562H14.9688C16.9072 5.51562 18.4844 7.09277 18.4844 9.03125V14.9688Z" fill="#374151"/>
</svg>
