<svg width="24" height="24" viewBox="0 0 24 24" fill="none" xmlns="http://www.w3.org/2000/svg">
<path d="M12.3574 21.9997C13.8868 21.782 15.2276 20.1824 16.0712 17.8201C14.8516 17.5464 13.6071 17.3994 12.3574 17.382V21.9997Z" fill="#374151"/>
<path d="M14.8004 21.6253C14.8908 21.5991 14.9809 21.5727 15.0702 21.5437C15.1456 21.5193 15.22 21.4931 15.2943 21.4671C15.3823 21.4366 15.4699 21.4053 15.5572 21.3721C15.6315 21.3438 15.7052 21.3137 15.779 21.2836C15.8642 21.2477 15.9492 21.2121 16.0333 21.1762C16.1068 21.1438 16.1797 21.1099 16.2527 21.0758C16.3352 21.0368 16.4174 20.9971 16.4989 20.9558C16.5705 20.9193 16.6419 20.882 16.7134 20.8437C16.7935 20.8007 16.8731 20.7568 16.9522 20.7117C17.0237 20.6711 17.0927 20.6303 17.1623 20.5884C17.2398 20.5406 17.3169 20.4929 17.3935 20.4451C17.4621 20.4014 17.5306 20.357 17.5981 20.3112C17.6735 20.2603 17.7478 20.2073 17.8218 20.1543C17.8883 20.1065 17.9545 20.059 18.0194 20.011C18.091 19.9558 18.1643 19.8986 18.236 19.8412C18.2997 19.7903 18.3632 19.7398 18.4259 19.6875C18.4973 19.628 18.5657 19.5665 18.635 19.5049C18.6957 19.4508 18.7568 19.3973 18.8161 19.3419C18.8844 19.278 18.9509 19.2119 19.0174 19.1464C19.075 19.0893 19.1332 19.0332 19.1896 18.9748C19.2001 18.9639 19.21 18.9522 19.2209 18.941C18.4412 18.5375 17.6201 18.2208 16.7717 17.9966C16.3305 19.4066 15.5453 20.6844 14.4873 21.7138C14.5163 21.7063 14.5452 21.7002 14.5742 21.6927C14.6507 21.6712 14.7257 21.6475 14.8004 21.6253Z" fill="#374151"/>
<path d="M21.9996 12.3578H17.7139C17.6976 14.0347 17.4549 15.7016 16.9922 17.3133C17.9357 17.5658 18.8462 17.9289 19.7049 18.395C21.1147 16.6922 21.9217 14.5692 21.9996 12.3578Z" fill="#374151"/>
<path d="M12.3574 11.641H16.9994C16.9812 10.0234 16.7444 8.41577 16.2957 6.86182C15.0031 7.15722 13.683 7.31497 12.3574 7.33246V11.641Z" fill="#374151"/>
<path d="M12.3572 2V6.6178C13.6068 6.60013 14.8514 6.45339 16.071 6.17968C15.2273 3.81735 13.8866 2.21775 12.3572 2Z" fill="#374151"/>
<path d="M12.3574 16.6664C13.683 16.684 15.0031 16.8418 16.2957 17.1372C16.7444 15.5832 16.9812 13.9754 16.9994 12.3578H12.3574V16.6664Z" fill="#374151"/>
<path d="M19.7049 5.60522C18.8462 6.07132 17.9357 6.43441 16.9922 6.68696C17.4549 8.29863 17.6976 9.96557 17.7139 11.6425H21.9996C21.9216 9.43126 21.1146 7.30819 19.7049 5.60522Z" fill="#374151"/>
<path d="M19.2225 5.06002C19.212 5.04935 19.202 5.03781 19.1917 5.02679C19.1352 4.96838 19.0766 4.91206 19.019 4.85522C18.9526 4.78963 18.8865 4.72335 18.8181 4.65968C18.7589 4.60442 18.6977 4.55212 18.6369 4.49703C18.5676 4.43547 18.4983 4.37338 18.4271 4.31391C18.3653 4.26162 18.302 4.2116 18.2392 4.1614C18.1676 4.10334 18.0943 4.04562 18.0207 3.99018C17.9561 3.94138 17.8906 3.89416 17.8248 3.84694C17.7501 3.79307 17.6751 3.73938 17.599 3.68813C17.5321 3.64301 17.4643 3.59894 17.3964 3.55574C17.319 3.50589 17.2419 3.45709 17.1632 3.40987C17.0943 3.36842 17.0246 3.3275 16.9548 3.28779C16.8749 3.24197 16.7948 3.19755 16.714 3.15417C16.6424 3.11832 16.571 3.07932 16.4995 3.04346C16.4173 3.00184 16.3343 2.96179 16.2494 2.92244C16.1778 2.88833 16.1052 2.8551 16.0315 2.82274C15.9469 2.78514 15.8614 2.75121 15.776 2.71536C15.7024 2.68528 15.6291 2.65554 15.5547 2.62721C15.468 2.59398 15.38 2.56285 15.2921 2.53242C15.2177 2.50618 15.1434 2.48012 15.068 2.45564C14.9786 2.4266 14.8892 2.40019 14.7974 2.37361C14.7231 2.35175 14.6484 2.32954 14.5732 2.3096C14.5444 2.30173 14.5151 2.29561 14.4861 2.28809C15.5441 3.31753 16.3291 4.59515 16.7705 6.00534C17.6198 5.78112 18.4421 5.46421 19.2225 5.06002Z" fill="#374151"/>
<path d="M2 11.6425H6.28572C6.30196 9.96557 6.54472 8.29863 7.00723 6.68696C6.0639 6.43458 5.15338 6.0715 4.2947 5.60522C2.88486 7.30802 2.07784 9.43126 2 11.6425Z" fill="#374151"/>
<path d="M11.6425 21.9997V17.382C10.3929 17.3996 9.14832 17.5464 7.92871 17.8201C8.77221 20.1824 10.1131 21.782 11.6425 21.9997Z" fill="#374151"/>
<path d="M11.6429 12.3578H7.00098C7.01913 13.9754 7.25579 15.5832 7.70468 17.1372C8.99723 16.8416 10.3172 16.6839 11.6429 16.6664V12.3578Z" fill="#374151"/>
<path d="M11.6423 2C10.1129 2.21775 8.77196 3.81735 7.92847 6.17968C9.14807 6.45357 10.3926 6.60031 11.6423 6.6178V2Z" fill="#374151"/>
<path d="M11.6429 7.33246C10.3174 7.31497 8.99723 7.15722 7.70468 6.86182C7.25579 8.41577 7.01913 10.0234 7.00098 11.641H11.6429V7.33246Z" fill="#374151"/>
<path d="M9.51158 2.28809C9.48261 2.29561 9.45364 2.30173 9.42466 2.30925C9.34892 2.32954 9.27422 2.3521 9.19882 2.37396C9.10912 2.40019 9.02011 2.4266 8.93005 2.45529C8.85413 2.47995 8.77943 2.50618 8.70473 2.53224C8.61729 2.5632 8.52968 2.59398 8.44311 2.62686C8.36842 2.65554 8.29476 2.68528 8.22076 2.71571C8.13577 2.75156 8.0506 2.78742 7.96665 2.82309C7.893 2.85545 7.82022 2.88938 7.74727 2.92349C7.66471 2.96249 7.58251 3.00219 7.50101 3.04346C7.42945 3.08002 7.35789 3.11745 7.28651 3.15557C7.2064 3.1986 7.12699 3.24267 7.0481 3.2878C6.97655 3.32785 6.90621 3.36895 6.83727 3.41092C6.75961 3.45779 6.68281 3.50624 6.60637 3.55416C6.53761 3.59824 6.46937 3.64266 6.40182 3.68848C6.32643 3.73938 6.25208 3.79237 6.17808 3.84537C6.11158 3.89311 6.04543 3.94068 5.98034 3.98878C5.90721 4.04387 5.8374 4.10124 5.76375 4.15843C5.70022 4.20933 5.63616 4.25987 5.57403 4.31251C5.50248 4.37163 5.43458 4.43284 5.36564 4.49406C5.30456 4.54862 5.24295 4.60162 5.18326 4.65811C5.11537 4.7216 5.04922 4.78753 4.9829 4.85294C4.92531 4.90996 4.86667 4.96628 4.81012 5.02487C4.79982 5.03571 4.78987 5.0476 4.77905 5.05862C5.5585 5.46228 6.37983 5.77902 7.22822 6.00324C7.66943 4.59392 8.45411 3.317 9.51158 2.28809Z" fill="#374151"/>
<path d="M4.98081 19.144C5.0473 19.2096 5.11345 19.2759 5.18169 19.3398C5.24103 19.3948 5.30211 19.4471 5.36302 19.5022C5.43231 19.564 5.5016 19.6259 5.57281 19.6854C5.63459 19.7373 5.6976 19.7875 5.76078 19.8379C5.83233 19.8959 5.90371 19.9536 5.97946 20.0094C6.04386 20.0579 6.10931 20.1048 6.17476 20.1529C6.24946 20.2065 6.32485 20.2602 6.40095 20.3118C6.46779 20.357 6.53568 20.401 6.60357 20.4444C6.68089 20.4941 6.75803 20.5429 6.83674 20.5901C6.90568 20.6317 6.97532 20.6725 7.04513 20.7123C7.12507 20.7582 7.20517 20.8026 7.28598 20.8458C7.35736 20.8816 7.42892 20.9206 7.50048 20.9565C7.58268 20.9981 7.66558 21.0382 7.75058 21.0777C7.82213 21.1115 7.89474 21.1447 7.96839 21.1772C8.05303 21.2148 8.13838 21.2488 8.2239 21.2846C8.29755 21.3147 8.37085 21.3444 8.4452 21.3728C8.53194 21.4062 8.6199 21.4373 8.70786 21.4677C8.78221 21.4938 8.85656 21.52 8.93196 21.5443C9.02132 21.5734 9.11068 21.5999 9.20248 21.6264C9.27683 21.6482 9.35153 21.6704 9.42657 21.6905C9.45555 21.6984 9.48487 21.7045 9.51384 21.7121C8.45585 20.6824 7.67082 19.4048 7.22943 17.9946C6.38105 18.219 5.55972 18.5358 4.78027 18.9396C4.79075 18.9503 4.80069 18.9618 4.81116 18.9728C4.86475 19.0309 4.92251 19.0872 4.98081 19.144Z" fill="#374151"/>
<path d="M4.2947 18.395C5.15338 17.9289 6.0639 17.5658 7.00723 17.3133C6.54472 15.7016 6.30196 14.0347 6.28572 12.3578H2C2.07801 14.569 2.88486 16.6921 4.2947 18.395Z" fill="#374151"/>
</svg>
