<svg width="26" height="26" viewBox="0 0 26 26" fill="none" xmlns="http://www.w3.org/2000/svg">
<circle opacity="0.65" cx="13" cy="13" r="12" fill="white" stroke="#CB00DD"/>
<path d="M15.7715 17.3333H10.1582V16.5189L12.4492 14.1927C12.875 13.763 13.2324 13.3802 13.5215 13.0443C13.8145 12.7083 14.0371 12.3782 14.1895 12.054C14.3418 11.7259 14.418 11.3665 14.418 10.9759C14.418 10.4915 14.2734 10.1224 13.9844 9.86847C13.6992 9.61066 13.3223 9.48175 12.8535 9.48175C12.4434 9.48175 12.0801 9.55206 11.7637 9.69269C11.4473 9.83331 11.123 10.0325 10.791 10.2903L10.2695 9.63409C10.4961 9.44269 10.7422 9.27277 11.0078 9.12433C11.2773 8.97589 11.5645 8.8587 11.8691 8.77277C12.1777 8.68683 12.5059 8.64386 12.8535 8.64386C13.3809 8.64386 13.8359 8.73566 14.2188 8.91925C14.6016 9.10284 14.8965 9.36456 15.1035 9.70441C15.3145 10.0443 15.4199 10.4485 15.4199 10.9173C15.4199 11.3704 15.3301 11.7923 15.1504 12.1829C14.9707 12.5696 14.7188 12.9544 14.3945 13.3372C14.0703 13.7161 13.6914 14.1185 13.2578 14.5443L11.3945 16.4017V16.4427H15.7715V17.3333Z" fill="#CB00DD"/>
</svg>
