<svg width="15" height="14" viewBox="0 0 15 14" fill="none" xmlns="http://www.w3.org/2000/svg">
<path fill-rule="evenodd" clip-rule="evenodd" d="M2.84436 0.576818C2.7458 0.659759 0.106071 4.12246 0.036577 4.25995C-0.0356999 4.40301 0.00229894 4.63384 0.122682 4.78288C0.178845 4.8524 1.78139 6.8473 3.68388 9.216C5.58637 11.5847 7.17854 13.5557 7.22207 13.596C7.2906 13.6594 7.32836 13.6692 7.50353 13.6692C7.70481 13.6692 7.70656 13.6685 7.83427 13.5374C7.99441 13.3729 14.9104 4.76073 14.963 4.66024C15.0123 4.56608 15.0123 4.34427 14.963 4.25008C14.8911 4.11267 12.3306 0.749468 12.2028 0.624514L12.0754 0.5H7.50553H2.93565L2.84436 0.576818ZM6.57185 1.41555C6.55608 1.4357 6.1843 1.93127 5.74566 2.51681C5.30704 3.10238 4.94405 3.577 4.93901 3.57152C4.934 3.56607 4.68447 3.0705 4.38455 2.47025L3.83924 1.37892H5.21988C6.32015 1.37892 6.5947 1.38637 6.57185 1.41555ZM10.6186 2.47025C10.3187 3.0705 10.0691 3.56607 10.0641 3.57152C10.0591 3.577 9.6961 3.10238 9.25748 2.51681C8.81884 1.93127 8.44706 1.4357 8.4313 1.41555C8.40844 1.38637 8.68299 1.37892 9.78326 1.37892H11.1639L10.6186 2.47025ZM8.38114 2.87391L9.22643 4.00105L8.364 4.00881C7.88967 4.01309 7.1135 4.01309 6.6392 4.00881L5.7768 4.00105L6.62883 2.86474C7.09744 2.2398 7.49322 1.7326 7.50834 1.73764C7.52346 1.74268 7.91622 2.25401 8.38114 2.87391ZM3.58315 2.91704L4.13227 4.0157H2.73956H1.34688L1.95257 3.21734C2.28571 2.77823 2.65864 2.28442 2.78134 2.11994C2.90404 1.95544 3.01109 1.82032 3.01923 1.81965C3.02741 1.81894 3.28115 2.31278 3.58315 2.91704ZM12.178 2.06132C12.2766 2.19357 12.6495 2.68741 13.0069 3.15875L13.6565 4.0157H12.2637H10.8709L11.42 2.91704C11.722 2.31278 11.9757 1.81894 11.9839 1.81962C11.9921 1.82029 12.0794 1.92907 12.178 2.06132ZM5.44082 7.9562C6.50323 11.4957 6.39606 11.1266 6.34605 11.0738C6.32446 11.0511 5.49223 10.0173 4.49665 8.77653C3.50103 7.53579 2.39162 6.15467 2.03129 5.70736L1.37612 4.89412L2.95121 4.90168L4.5263 4.90927L5.44082 7.9562ZM9.51601 4.94589C9.40306 5.36142 7.51437 11.6037 7.50157 11.6037C7.48877 11.6037 5.60008 5.36142 5.48714 4.94589C5.47398 4.89743 5.58402 4.89462 7.50157 4.89462C9.41912 4.89462 9.52916 4.89743 9.51601 4.94589ZM12.9143 5.78087C12.5219 6.26829 11.4185 7.64272 10.4622 8.83513C8.69363 11.0403 8.60008 11.1546 8.627 11.0764C8.63535 11.0522 9.05278 9.66132 9.55468 7.9855C10.0566 6.30969 10.4731 4.92866 10.4803 4.91659C10.4875 4.90452 11.1986 4.89462 12.0605 4.89462H13.6276L12.9143 5.78087Z" fill="#039D9F"/>
</svg>
