<svg width="17" height="16" viewBox="0 0 17 16" fill="none" xmlns="http://www.w3.org/2000/svg">
<path d="M8.5 0.125C4.15117 0.125 0.625 3.65117 0.625 8C0.625 12.3488 4.15117 15.875 8.5 15.875C12.8488 15.875 16.375 12.3488 16.375 8C16.375 3.65117 12.8488 0.125 8.5 0.125ZM8.5 14.5391C4.88945 14.5391 1.96094 11.6105 1.96094 8C1.96094 4.38945 4.88945 1.46094 8.5 1.46094C12.1105 1.46094 15.0391 4.38945 15.0391 8C15.0391 11.6105 12.1105 14.5391 8.5 14.5391ZM9.33848 7.59219L8.89199 7.48848V5.12773C9.55996 5.21914 9.97305 5.6375 10.0434 6.15078C10.0521 6.22109 10.1119 6.27207 10.1822 6.27207H10.9715C11.0541 6.27207 11.1191 6.2 11.1121 6.11738C11.0049 5.02227 10.1031 4.31914 8.89902 4.19785V3.62305C8.89902 3.5457 8.83574 3.48242 8.7584 3.48242H8.26445C8.18711 3.48242 8.12383 3.5457 8.12383 3.62305V4.20312C6.8793 4.32441 5.90547 5.01172 5.90547 6.29492C5.90547 7.4832 6.78086 8.05625 7.7002 8.27598L8.13438 8.38672V10.8951C7.35742 10.7914 6.92148 10.3766 6.83184 9.81758C6.82129 9.75078 6.76152 9.70156 6.69297 9.70156H5.88086C5.79824 9.70156 5.7332 9.77188 5.74023 9.85449C5.81934 10.8213 6.55234 11.7107 8.1168 11.825V12.377C8.1168 12.4543 8.18008 12.5176 8.25742 12.5176H8.75664C8.83398 12.5176 8.89727 12.4543 8.89727 12.3752L8.89375 11.818C10.2701 11.6967 11.2545 10.9602 11.2545 9.63828C11.2527 8.41836 10.4775 7.87344 9.33848 7.59219ZM8.13262 7.30742C8.03418 7.2793 7.95156 7.25293 7.86895 7.21953C7.2748 7.00508 6.99883 6.65879 6.99883 6.2123C6.99883 5.57422 7.48223 5.21035 8.13262 5.12773V7.30742ZM8.89199 10.9004V8.55019C8.94648 8.56602 8.9957 8.57832 9.04668 8.58887C9.87812 8.84199 10.1576 9.19355 10.1576 9.7332C10.1576 10.4205 9.64082 10.8336 8.89199 10.9004Z" fill="#039D9F"/>
</svg>
