<svg width="16" height="15" viewBox="0 0 16 15" fill="none" xmlns="http://www.w3.org/2000/svg">
<path fill-rule="evenodd" clip-rule="evenodd" d="M7.28786 0.0397484C6.88433 0.108056 6.36766 0.279075 5.99769 0.466856C5.52759 0.70545 4.85293 1.27483 4.54367 1.69397C4.09614 2.30053 3.82367 2.93825 3.71032 3.64436C3.65387 3.99595 3.6532 4.67713 3.70894 5.0216C3.88173 6.08967 4.44387 7.05102 5.29465 7.73343L5.5057 7.90272L5.29465 7.98289C3.87948 8.5206 2.58632 9.56567 1.73186 10.8623C0.993569 11.9826 0.571178 13.2716 0.517831 14.5671L0.5 15L1.09637 14.9921L1.69278 14.9841L1.71119 14.6178C1.71746 14.4932 1.7276 14.1233 1.74155 14C1.95042 12.1534 3.01209 10.7173 4.66048 9.64828C5.34785 9.20253 6.27249 8.86574 7.14469 8.74345C7.58675 8.68147 8.39745 8.68147 8.83951 8.74345C10.6865 9.00241 12.2848 10.0402 13.3293 11.6588C13.8036 12.3939 14.1338 13.0924 14.2414 14C14.2562 14.1249 14.2668 14.495 14.273 14.6178L14.2914 14.9841H14.8907H15.4899L15.4982 14.6521C15.5038 14.4291 15.4966 14.3262 15.4763 14.3388C15.4575 14.3504 15.4461 14.3153 15.4461 14.2459C15.446 14.0703 15.3394 13.4603 15.2445 13.0924C14.7479 11.1687 13.5017 9.52842 11.7493 8.49199C11.4581 8.3198 11.0114 8.10518 10.6896 7.98289L10.4785 7.90272L10.6896 7.7334C11.4799 7.09935 12.0185 6.22591 12.2451 5.21064C12.3196 4.87669 12.3372 4.04278 12.2776 3.66801C12.162 2.94097 11.8935 2.30792 11.4405 1.69397C11.1313 1.27483 10.4566 0.70545 9.98652 0.466856C9.60198 0.271691 9.10341 0.109053 8.67272 0.0382832C8.35828 -0.0134093 7.59716 -0.0125887 7.28786 0.0397484ZM7.69979 1.20069C6.42961 1.31002 5.34343 2.22305 4.96465 3.49983C4.86045 3.85113 4.83288 4.50871 4.90608 4.89799C5.14536 6.17081 6.14732 7.18228 7.40604 7.42163C7.71628 7.48065 8.26793 7.48065 8.57816 7.42163C9.83688 7.18228 10.8388 6.17081 11.0781 4.89799C11.1513 4.50871 11.1238 3.85113 11.0195 3.49983C10.8608 2.96492 10.6176 2.54493 10.2344 2.14399C9.73524 1.62179 8.99263 1.25675 8.33428 1.20992C8.20236 1.20054 8.0681 1.18926 8.03595 1.18484C8.00379 1.18041 7.85252 1.18753 7.69979 1.20069ZM0.519965 14.6764C0.519965 14.8618 0.52473 14.9376 0.530517 14.8449C0.536305 14.7522 0.536305 14.6006 0.530517 14.5079C0.52473 14.4152 0.519965 14.4911 0.519965 14.6764Z" fill="#039D9F"/>
<path d="M1.09637 14.9921L0.5 15L14.2914 14.9841L14.273 14.6178C14.2668 14.495 14.2562 14.1249 14.2414 14H1.74155C1.7276 14.1233 1.71746 14.4932 1.71119 14.6178L1.69278 14.9841L1.09637 14.9921Z" fill="#039D9F"/>
</svg>
