<svg width="30" height="30" viewBox="0 0 30 30" fill="none" xmlns="http://www.w3.org/2000/svg">
<path d="M26.8756 10.0581L26.0122 7.71312L26.6127 6.36696C26.6504 6.28204 26.6616 6.18771 26.6448 6.09631C26.628 6.00492 26.584 5.92074 26.5185 5.8548L24.8858 4.20448C24.5354 3.84885 24.0911 3.60009 23.6047 3.48718C23.1183 3.37427 22.6099 3.40186 22.1386 3.56672L21.6814 3.72567L19.1872 1.02355L14.9565 1H14.929L10.6707 1.03336L8.17858 3.75707L7.7351 3.60008C7.26074 3.43327 6.74864 3.40522 6.2589 3.51922C5.76916 3.63323 5.32209 3.88456 4.97018 4.24373L3.30808 5.92544C3.25592 5.97801 3.22088 6.04512 3.20758 6.11797C3.19427 6.19082 3.20331 6.26599 3.23352 6.3336L3.8595 7.73078L3 10.0738L3.55534 12.1872L6.0887 21.8183C6.38056 22.9278 7.05199 23.8999 7.98628 24.5656C7.98628 24.5656 11.0612 26.734 14.095 28.7041C14.3349 28.8957 14.6328 29 14.9398 29C15.2468 29 15.5447 28.8957 15.7846 28.7041C19.1931 26.471 21.8894 24.5577 21.8894 24.5577C22.8229 23.8917 23.4936 22.9196 23.785 21.8105L26.3046 12.1755L26.8756 10.0581Z" fill="url(#paint0_linear_4329_27807)"/>
<path d="M15.6354 18.3569C15.4739 18.2846 15.3073 18.2243 15.137 18.1764H14.8368C14.6664 18.2243 14.4998 18.2846 14.3383 18.3569L13.5828 18.6709C13.3434 18.771 12.9588 18.9495 12.7292 19.0634L11.3399 19.7875C11.2896 19.8038 11.2453 19.8348 11.2128 19.8765C11.1802 19.9182 11.1609 19.9687 11.1573 20.0215C11.1538 20.0742 11.1661 20.1269 11.1926 20.1726C11.2192 20.2183 11.2589 20.2551 11.3065 20.278L12.5134 21.1297C12.7253 21.2788 13.0589 21.5418 13.2551 21.7184L13.5946 22.0108C13.7908 22.1795 14.1107 22.4602 14.305 22.6328L14.6268 22.9174C14.7262 23.0002 14.8516 23.0456 14.981 23.0456C15.1104 23.0456 15.2358 23.0002 15.3352 22.9174L15.6727 22.623L16.3831 22.0029L16.7245 21.7047C16.9208 21.5339 17.2524 21.271 17.4643 21.116L18.6712 20.2525C18.7189 20.2296 18.7586 20.1928 18.7851 20.1469C18.8116 20.1011 18.8236 20.0483 18.8195 19.9955C18.8155 19.9427 18.7956 19.8923 18.7625 19.851C18.7294 19.8097 18.6845 19.7793 18.6339 19.7639L17.2465 19.0594C17.0149 18.9417 16.6303 18.7651 16.389 18.667L15.6354 18.3569Z" fill="white"/>
<path d="M24.1911 10.5813L24.2304 10.4557C24.2327 10.2877 24.2222 10.1197 24.199 9.9533C24.0821 9.65606 23.932 9.37299 23.7515 9.10951L22.9666 7.95762C22.8214 7.74176 22.5742 7.40032 22.4074 7.1982L21.3555 5.88147C21.2596 5.75314 21.1554 5.63122 21.0435 5.51648H21.022C21.022 5.51648 20.81 5.55377 20.5549 5.60282L18.9478 5.91287L18.2433 6.04827C18.0094 6.05926 17.7756 6.02529 17.5545 5.9482L16.2849 5.53807C16.0376 5.45761 15.6295 5.34184 15.3763 5.28689C15.1096 5.25854 14.8405 5.25854 14.5737 5.28689C14.3206 5.34576 13.9124 5.45958 13.6652 5.54003L12.3956 5.95212C12.1745 6.02921 11.9407 6.06319 11.7068 6.0522L11.0023 5.91876L9.3932 5.61068C9.13809 5.56162 8.92812 5.52237 8.92616 5.52433H8.90458C8.79273 5.63907 8.68851 5.76099 8.59257 5.88933L7.54272 7.20605C7.38181 7.40228 7.12867 7.75157 6.98346 7.96547L6.19853 9.11735C6.06296 9.316 5.93912 9.52239 5.82765 9.73549C5.7604 9.9731 5.72477 10.2185 5.72168 10.4655L5.76093 10.5911C5.77982 10.6717 5.80408 10.7511 5.83353 10.8285C5.99641 11.0247 6.27506 11.3505 6.45363 11.5408L9.20089 14.4608C9.29209 14.5672 9.35312 14.6962 9.37762 14.8342C9.40212 14.9723 9.3892 15.1143 9.34021 15.2457L8.89084 16.3112C8.78866 16.5935 8.78108 16.9014 8.86925 17.1884L8.95952 17.4357C9.10701 17.8372 9.35983 18.1917 9.69147 18.462L10.1232 18.8132C10.2353 18.8941 10.3662 18.9452 10.5035 18.9617C10.6408 18.9781 10.78 18.9595 10.9081 18.9074L12.4427 18.1755C12.7243 18.0344 12.9879 17.8598 13.2276 17.6554L14.456 16.5467C14.5049 16.5026 14.5445 16.449 14.5724 16.3893C14.6002 16.3295 14.6158 16.2648 14.6182 16.1989C14.6205 16.133 14.6097 16.0673 14.5862 16.0057C14.5627 15.9441 14.5271 15.8879 14.4815 15.8403L11.7087 13.9722C11.6038 13.8977 11.529 13.788 11.498 13.663C11.467 13.538 11.4819 13.4061 11.54 13.2912L12.6153 11.27C12.6765 11.1463 12.7126 11.0117 12.7217 10.874C12.7308 10.7363 12.7127 10.5981 12.6683 10.4674C12.5348 10.2181 12.3192 10.0226 12.058 9.91406L8.68676 8.64051C8.44343 8.54828 8.45716 8.44428 8.71423 8.42858L10.6942 8.23235C11.0047 8.2126 11.3164 8.24039 11.6185 8.31476L13.3414 8.79553C13.4637 8.8324 13.5685 8.91238 13.6364 9.02064C13.7042 9.12889 13.7305 9.25808 13.7103 9.38423L13.0333 13.0813C12.988 13.286 12.9768 13.4968 13 13.7053C13.0274 13.7936 13.259 13.9015 13.5121 13.9643L14.562 14.188C14.8668 14.244 15.1794 14.244 15.4843 14.188L16.4281 13.9741C16.6813 13.9172 16.9109 13.7975 16.9403 13.7092C16.9629 13.5007 16.951 13.2898 16.905 13.0852L16.2241 9.38816C16.2039 9.262 16.2302 9.13282 16.298 9.02456C16.3659 8.91631 16.4707 8.83633 16.593 8.79946L18.3159 8.31672C18.618 8.24233 18.9297 8.21453 19.2402 8.23431L21.2201 8.41877C21.4792 8.44231 21.4909 8.53847 21.2496 8.6307L17.8803 9.90817C17.6191 10.0167 17.4035 10.2122 17.27 10.4615C17.1806 10.7255 17.1997 11.0142 17.323 11.2641L18.4003 13.2853C18.4583 13.4002 18.4732 13.5322 18.4422 13.6571C18.4113 13.7821 18.3365 13.8918 18.2315 13.9663L15.4607 15.8383C15.4151 15.8859 15.3795 15.9422 15.356 16.0038C15.3325 16.0654 15.3217 16.1311 15.3241 16.1969C15.3264 16.2628 15.342 16.3275 15.3699 16.3873C15.3977 16.447 15.4373 16.5006 15.4862 16.5448L16.7166 17.6535C16.9564 17.8572 17.22 18.0311 17.5015 18.1715L19.0361 18.9015C19.1643 18.9533 19.3037 18.9717 19.441 18.9548C19.5783 18.938 19.709 18.8866 19.821 18.8054L20.2527 18.4521C20.5847 18.1814 20.8376 17.8262 20.9847 17.4239L21.0749 17.1766C21.1631 16.8897 21.1555 16.5818 21.0533 16.2995L20.602 15.2339C20.553 15.1026 20.5401 14.9605 20.5646 14.8225C20.5891 14.6844 20.6501 14.5555 20.7413 14.449L23.4886 11.5251C23.6672 11.3289 23.9439 11.0149 24.1067 10.8128C24.1399 10.7376 24.1681 10.6602 24.1911 10.5813Z" fill="white"/>
<defs>
<linearGradient id="paint0_linear_4329_27807" x1="3.00785" y1="15.0012" x2="26.8678" y2="15.0012" gradientUnits="userSpaceOnUse">
<stop stop-color="#F1562B"/>
<stop offset="0.3" stop-color="#F1542B"/>
<stop offset="0.41" stop-color="#F04D2A"/>
<stop offset="0.49" stop-color="#EF4229"/>
<stop offset="0.5" stop-color="#EF4029"/>
<stop offset="0.56" stop-color="#E83E28"/>
<stop offset="0.67" stop-color="#E13C26"/>
<stop offset="1" stop-color="#DF3C26"/>
</linearGradient>
</defs>
</svg>
