<svg width="60" height="60" viewBox="0 0 60 60" fill="none" xmlns="http://www.w3.org/2000/svg">
<path d="M29.9021 15L42.8329 22.487L29.9021 30.182L17 22.4755L29.9021 15Z" stroke="url(#paint0_linear_4202_113194)" stroke-width="2" stroke-miterlimit="10" stroke-linejoin="round"/>
<path d="M29.9167 45.0001L42.8907 37.5015L42.8332 22.4871L29.9023 30.182L29.9167 45.0001Z" stroke="url(#paint1_linear_4202_113194)" stroke-width="2" stroke-miterlimit="10" stroke-linejoin="round"/>
<path d="M17 37.5304V22.4756L29.9021 30.1821L29.9165 45.0001L17 37.5304Z" stroke="url(#paint2_linear_4202_113194)" stroke-width="2" stroke-miterlimit="10" stroke-linejoin="round"/>
<path d="M42.8329 22.487L29.9021 15L17 22.4755M42.8329 22.487L29.9021 30.182M42.8329 22.487L42.8904 37.5015L29.9165 45M29.9021 30.182L17 22.4755M29.9021 30.182L29.9165 45M17 22.4755V37.5303L29.9165 45" stroke="#49FFDE" stroke-opacity="0.56" stroke-width="2" stroke-miterlimit="10" stroke-linejoin="round" style="mix-blend-mode:soft-light"/>
<defs>
<linearGradient id="paint0_linear_4202_113194" x1="23.4179" y1="17.0834" x2="38.0971" y2="37.3089" gradientUnits="userSpaceOnUse">
<stop stop-color="#F043FF"/>
<stop offset="0.461458" stop-color="#5489D8"/>
<stop offset="1" stop-color="#2CFF64"/>
</linearGradient>
<linearGradient id="paint1_linear_4202_113194" x1="30" y1="16" x2="48.1302" y2="30.539" gradientUnits="userSpaceOnUse">
<stop stop-color="#FC2EF5"/>
<stop offset="0.461458" stop-color="#5489D8"/>
<stop offset="1" stop-color="#2CFF64"/>
</linearGradient>
<linearGradient id="paint2_linear_4202_113194" x1="33.5" y1="18.0001" x2="43.5821" y2="50.801" gradientUnits="userSpaceOnUse">
<stop stop-color="#FC2EF5"/>
<stop offset="0.461458" stop-color="#5489D8"/>
<stop offset="1" stop-color="#2CFF64"/>
</linearGradient>
</defs>
</svg>
