<svg width="18" height="18" viewBox="0 0 18 18" fill="none" xmlns="http://www.w3.org/2000/svg">
<path d="M16.5 4.46459C15.9422 4.71293 15.3478 4.87754 14.7281 4.95746C15.3656 4.57116 15.8522 3.96411 16.0809 3.23241C15.4866 3.59207 14.8303 3.84612 14.1309 3.98789C13.5666 3.37799 12.7622 3.00024 11.8847 3.00024C10.1822 3.00024 8.81156 4.40274 8.81156 6.12209C8.81156 6.36948 8.83219 6.60735 8.88281 6.83381C6.32625 6.70726 4.06406 5.46366 2.54437 3.56924C2.27906 4.03642 2.12344 4.57116 2.12344 5.14681C2.12344 6.22771 2.67188 7.18586 3.48937 7.74058C2.99531 7.73106 2.51063 7.58549 2.1 7.35618C2.1 7.36569 2.1 7.37806 2.1 7.39043C2.1 8.90711 3.16594 10.1669 4.56375 10.4571C4.31344 10.5266 4.04063 10.5599 3.7575 10.5599C3.56063 10.5599 3.36187 10.5484 3.17531 10.5066C3.57375 11.7426 4.70438 12.6512 6.04875 12.6807C5.0025 13.5114 3.67406 14.0119 2.23594 14.0119C1.98375 14.0119 1.74187 14.0004 1.5 13.9691C2.86219 14.8606 4.47656 15.3696 6.2175 15.3696C11.8763 15.3696 14.97 10.6122 14.97 6.48842C14.97 6.35045 14.9653 6.21724 14.9587 6.08498C15.5691 5.64539 16.0819 5.09638 16.5 4.46459Z" fill="#36B3B5"/>
</svg>
