<svg width="16" height="16" viewBox="0 0 16 16" fill="none" xmlns="http://www.w3.org/2000/svg">
<path d="M8.26807 15.4998C9.41512 15.3365 10.4207 14.1368 11.0534 12.3651C10.1387 12.1598 9.20529 12.0496 8.26807 12.0365V15.4998Z" fill="#36B3B5"/>
<path d="M10.1001 15.219C10.1679 15.1993 10.2354 15.1795 10.3024 15.1577C10.359 15.1395 10.4147 15.1198 10.4705 15.1003C10.5365 15.0774 10.6022 15.054 10.6676 15.029C10.7234 15.0078 10.7786 14.9852 10.834 14.9627C10.8979 14.9358 10.9616 14.909 11.0247 14.8821C11.0798 14.8579 11.1345 14.8324 11.1892 14.8068C11.2512 14.7776 11.3128 14.7478 11.3739 14.7168C11.4276 14.6894 11.4811 14.6615 11.5348 14.6328C11.5949 14.6005 11.6546 14.5676 11.7139 14.5337C11.7675 14.5033 11.8193 14.4727 11.8715 14.4412C11.9296 14.4054 11.9875 14.3696 12.0449 14.3338C12.0964 14.301 12.1477 14.2677 12.1983 14.2333C12.2549 14.1952 12.3106 14.1554 12.3661 14.1157C12.416 14.0799 12.4656 14.0442 12.5143 14.0082C12.568 13.9668 12.623 13.9239 12.6768 13.8809C12.7245 13.8427 12.7722 13.8048 12.8192 13.7656C12.8727 13.721 12.924 13.6748 12.976 13.6286C13.0215 13.5881 13.0673 13.548 13.1119 13.5064C13.163 13.4585 13.2129 13.4089 13.2628 13.3597C13.306 13.317 13.3497 13.2749 13.392 13.2311C13.3998 13.2229 13.4073 13.2141 13.4154 13.2057C12.8307 12.9031 12.2148 12.6656 11.5785 12.4974C11.2476 13.5549 10.6587 14.5133 9.86523 15.2853C9.88696 15.2797 9.90869 15.2751 9.93042 15.2695C9.98775 15.2533 10.044 15.2356 10.1001 15.219V15.219Z" fill="#36B3B5"/>
<path d="M15.4997 8.26831H12.2854C12.2732 9.52599 12.0911 10.7762 11.7441 11.9849C12.4518 12.1744 13.1347 12.4467 13.7787 12.7962C14.836 11.5192 15.4413 9.92685 15.4997 8.26831V8.26831Z" fill="#36B3B5"/>
<path d="M8.26807 7.73076H11.7495C11.7359 6.51754 11.5583 5.3118 11.2218 4.14633C10.2523 4.36788 9.26223 4.4862 8.26807 4.49932V7.73076Z" fill="#36B3B5"/>
<path d="M8.26807 0.5V3.96335C9.20529 3.9501 10.1387 3.84004 11.0534 3.63476C10.4207 1.86301 9.41512 0.66331 8.26807 0.5V0.5Z" fill="#36B3B5"/>
<path d="M8.26807 11.4997C9.26223 11.513 10.2523 11.6313 11.2218 11.8529C11.5583 10.6874 11.7359 9.48152 11.7495 8.26831H8.26807V11.4997Z" fill="#36B3B5"/>
<path d="M13.7787 3.20393C13.1347 3.55351 12.4518 3.82582 11.7441 4.01524C12.0911 5.22399 12.2732 6.47419 12.2854 7.73188H15.4997C15.4412 6.07346 14.8359 4.48116 13.7787 3.20393V3.20393Z" fill="#36B3B5"/>
<path d="M13.417 2.79502C13.4092 2.78702 13.4017 2.77836 13.394 2.77009C13.3516 2.72628 13.3076 2.68404 13.2644 2.64141C13.2147 2.59222 13.1651 2.54251 13.1137 2.49476C13.0694 2.45331 13.0234 2.41409 12.9779 2.37277C12.9259 2.3266 12.8739 2.28003 12.8205 2.23543C12.7742 2.19621 12.7267 2.1587 12.6796 2.12105C12.6259 2.0775 12.5709 2.03422 12.5157 1.99263C12.4672 1.95604 12.4182 1.92062 12.3688 1.8852C12.3128 1.8448 12.2565 1.80453 12.1994 1.7661C12.1493 1.73226 12.0984 1.6992 12.0475 1.6668C11.9895 1.62942 11.9316 1.59282 11.8726 1.5574C11.8209 1.52632 11.7686 1.49562 11.7163 1.46585C11.6563 1.43148 11.5963 1.39816 11.5356 1.36563C11.482 1.33874 11.4284 1.30949 11.3748 1.2826C11.3131 1.25138 11.2509 1.22134 11.1872 1.19183C11.1335 1.16625 11.0791 1.14133 11.0238 1.11706C10.9604 1.08886 10.8962 1.06341 10.8322 1.03652C10.777 1.01396 10.722 0.991658 10.6662 0.970408C10.6012 0.945485 10.5352 0.922136 10.4692 0.899312C10.4135 0.879637 10.3577 0.860092 10.3012 0.841728C10.2341 0.819953 10.1671 0.800146 10.0983 0.780208C10.0425 0.763811 9.98648 0.747152 9.93006 0.732199C9.90847 0.726296 9.88648 0.721705 9.86475 0.716064C10.6582 1.48815 11.247 2.44636 11.5781 3.504C12.215 3.33584 12.8318 3.09816 13.417 2.79502V2.79502Z" fill="#36B3B5"/>
<path d="M0.5 7.73188H3.71429C3.72647 6.47419 3.90854 5.22399 4.25542 4.01524C3.54792 3.82595 2.86504 3.55364 2.22103 3.20393C1.16365 4.48103 0.55838 6.07346 0.5 7.73188Z" fill="#36B3B5"/>
<path d="M7.73164 15.4998V12.0365C6.79442 12.0497 5.86099 12.1598 4.94629 12.3651C5.57891 14.1368 6.58459 15.3365 7.73164 15.4998Z" fill="#36B3B5"/>
<path d="M7.73243 8.26831H4.25098C4.26459 9.48152 4.44209 10.6874 4.77875 11.8529C5.74817 11.6312 6.73814 11.5129 7.73243 11.4997V8.26831Z" fill="#36B3B5"/>
<path d="M7.73164 0.5C6.58459 0.66331 5.57891 1.86301 4.94629 3.63476C5.86099 3.84018 6.79442 3.95023 7.73164 3.96335V0.5Z" fill="#36B3B5"/>
<path d="M7.73243 4.49932C6.73827 4.4862 5.74817 4.36788 4.77875 4.14633C4.44209 5.3118 4.26459 6.51754 4.25098 7.73076H7.73243V4.49932Z" fill="#36B3B5"/>
<path d="M6.13387 0.716064C6.11214 0.721705 6.09041 0.726296 6.06868 0.731936C6.01187 0.747152 5.95585 0.764074 5.8993 0.78047C5.83202 0.800146 5.76526 0.819953 5.69772 0.841465C5.64078 0.859961 5.58476 0.879637 5.52873 0.899181C5.46315 0.922399 5.39744 0.945485 5.33252 0.970146C5.27649 0.991658 5.22126 1.01396 5.16576 1.03678C5.10201 1.06367 5.03813 1.09056 4.97517 1.11732C4.91993 1.14159 4.86535 1.16704 4.81063 1.19261C4.74872 1.22187 4.68707 1.25164 4.62594 1.2826C4.57227 1.31001 4.5186 1.33808 4.46507 1.36668C4.40498 1.39895 4.34543 1.432 4.28626 1.46585C4.23259 1.49588 4.17984 1.52671 4.12814 1.55819C4.06989 1.59335 4.01229 1.62968 3.95496 1.66562C3.90339 1.69868 3.85221 1.732 3.80155 1.76636C3.745 1.80453 3.68924 1.84428 3.63374 1.88402C3.58387 1.91983 3.53426 1.95551 3.48543 1.99159C3.43059 2.0329 3.37823 2.07593 3.32299 2.11882C3.27535 2.15699 3.22731 2.1949 3.18071 2.23439C3.12704 2.27872 3.07612 2.32463 3.02442 2.37054C2.9786 2.41147 2.9324 2.45121 2.88763 2.49358C2.83671 2.5412 2.7871 2.59065 2.73736 2.63971C2.69416 2.68247 2.65018 2.72471 2.60777 2.76865C2.60005 2.77678 2.59259 2.7857 2.58447 2.79397C3.16906 3.09671 3.78506 3.33427 4.42135 3.50243C4.75225 2.44544 5.34076 1.48775 6.13387 0.716064V0.716064Z" fill="#36B3B5"/>
<path d="M2.73536 13.358C2.78523 13.4072 2.83484 13.4569 2.88602 13.5048C2.93053 13.5461 2.97634 13.5853 3.02202 13.6266C3.07399 13.673 3.12596 13.7194 3.17936 13.764C3.2257 13.8029 3.27295 13.8406 3.32034 13.8784C3.374 13.9219 3.42754 13.9652 3.48435 14.007C3.53265 14.0434 3.58174 14.0785 3.63082 14.1146C3.68685 14.1549 3.74339 14.1951 3.80047 14.2338C3.8506 14.2677 3.90152 14.3007 3.95244 14.3333C4.01042 14.3705 4.06828 14.4071 4.12731 14.4425C4.17902 14.4738 4.23125 14.5043 4.2836 14.5342C4.34355 14.5686 4.40364 14.6019 4.46424 14.6343C4.51778 14.6612 4.57145 14.6905 4.62511 14.7173C4.68677 14.7486 4.74894 14.7786 4.81269 14.8082C4.86636 14.8336 4.92081 14.8585 4.97605 14.8829C5.03953 14.9111 5.10354 14.9365 5.16768 14.9634C5.22292 14.986 5.27789 15.0083 5.33366 15.0295C5.39871 15.0546 5.46468 15.0779 5.53065 15.1008C5.58642 15.1203 5.64218 15.14 5.69873 15.1582C5.76574 15.18 5.83276 15.1999 5.90162 15.2197C5.95738 15.2361 6.0134 15.2528 6.06969 15.2679C6.09142 15.2738 6.11341 15.2784 6.13513 15.284C5.34164 14.5118 4.75287 13.5536 4.42183 12.4959C3.78554 12.6642 3.16954 12.9018 2.58496 13.2047C2.59281 13.2127 2.60028 13.2213 2.60813 13.2296C2.64831 13.2731 2.69164 13.3154 2.73536 13.358V13.358Z" fill="#36B3B5"/>
<path d="M2.22103 12.7962C2.86504 12.4467 3.54792 12.1744 4.25542 11.9849C3.90854 10.7762 3.72647 9.52599 3.71429 8.26831H0.5C0.558511 9.92672 1.16365 11.519 2.22103 12.7962V12.7962Z" fill="#36B3B5"/>
</svg>
